<?xml version="1.0" encoding="UTF-8" standalone="no"?>
<!DOCTYPE svg PUBLIC "-//W3C//DTD SVG 1.1//EN" "http://www.w3.org/Graphics/SVG/1.1/DTD/svg11.dtd">
<svg width="100%" height="100%" viewBox="0 0 500 500" version="1.1" xmlns="http://www.w3.org/2000/svg" xmlns:xlink="http://www.w3.org/1999/xlink" xml:space="preserve" xmlns:serif="http://www.serif.com/" style="fill-rule:evenodd;clip-rule:evenodd;stroke-linejoin:round;stroke-miterlimit:2;">
    <g transform="matrix(1,0,0,1,-2,-541)">
        <g id="Human-Rights-Council" serif:id="Human Rights Council" transform="matrix(1,0,0,1,2.08434,541)">
            <rect x="0" y="0" width="500" height="500" style="fill:none;"/>
            <rect x="0" y="0" width="500" height="500" style="fill:rgb(247,88,235);"/>
            <g id="MGSMUN" transform="matrix(0.47336,0,0,0.47336,60.6562,60.6562)">
                <g id="Base-UN-logo" serif:id="Base UN logo" transform="matrix(1.4405,0,0,1.4405,66.7789,-3.16909)">
                    <g>
                        <g>
                            <path d="M35.8,244L37,245C35.7,236 35,226.2 37.6,217.6C41.5,203.8 46.4,190.4 48.9,176.1C50.9,165 53.2,152.5 51.9,141.8C50.4,147.6 48.9,153.3 45.7,158.3C33.6,177 21.2,199 29.7,222.8C29.5,223.1 29.2,223.4 28.9,223.2C25.5,215.3 24.7,206.4 22.5,198C16.6,175.7 -0.5,157 4.5,131.2C1.8,136.8 0.8,143.1 -0.6,149.2C-3.6,165 -0.6,181.7 3.7,196.3C9,214.4 26.7,227.4 35.8,244Z" style="fill:white;fill-opacity:0.25;fill-rule:nonzero;"/>
                            <path d="M31.2,128.2C35.2,120 41.7,112.2 49.5,106.4C66.7,93.4 85.5,76.6 85.8,54.6C80,70.4 62.7,77 51.2,87.8C45.1,93.5 40.4,100.4 37.7,107.6L37.3,107.3C38.7,100.9 41.4,95.2 43.3,89C48.3,72.2 47.4,52.1 63.8,40.8C55.4,43 48.3,48.4 42,55.4C28.7,70.1 29.9,91.8 31.6,111C32.2,117 31.9,122.1 31.2,128.2Z" style="fill:white;fill-opacity:0.25;fill-rule:nonzero;"/>
                            <path d="M51.2,80.3C60.4,71.7 71,65.3 78.8,55.1C88.1,42.8 96.2,29 108.4,18.4C91.9,24.8 74.1,31.4 63.4,48.4C57.1,58.3 56.1,70 51.2,80.3Z" style="fill:white;fill-opacity:0.25;fill-rule:nonzero;"/>
                            <path d="M58.1,123.8C62.1,115.7 64.6,106.5 65.7,97.6C64.2,101.4 61.9,104.9 58.7,107.9C45.3,120.6 29.6,133 26.6,151C26.2,153.6 25.9,156.2 25.2,158.7C24.6,159 24.6,158.3 24.4,158.1L26.1,135.9C27.7,114.2 16.3,90.1 28.8,71C28.4,70.9 28.1,71.3 27.8,71.4C16.4,85.9 8.8,101.9 8.8,121.4C8.8,145.5 22.7,162.4 24.4,185C28,161.4 47.8,144.6 58.1,123.8Z" style="fill:white;fill-opacity:0.25;fill-rule:nonzero;"/>
                            <path d="M31.6,271.9C44.5,282.1 59.9,290 71.7,299C69.4,293.1 65.6,287.7 64.1,281.6C57.2,253.7 61,221.3 49.1,195.5C51.3,210.2 45.5,223.2 44.2,237.2C43.1,248.7 45.1,259.9 49.6,269.5C50.9,272.4 53.3,274.9 54,277.9C49.7,274 46.6,269.1 43.7,264.3C29.8,241.8 0.7,227.2 -1.3,199.8C-2.3,212 -1.2,224.9 2.8,235.7C8.3,250.5 19.1,262 31.6,271.9Z" style="fill:white;fill-opacity:0.25;fill-rule:nonzero;"/>
                            <path d="M166.8,348.2C170.3,347.3 174.5,347.6 177.7,346.4C164.3,343.7 151.4,339.6 141,330.1C126.1,316.5 112.9,302 97,291.4C109.5,308.2 113,332.6 135.8,341.1C139.8,342.6 144.5,342.9 148,345.1C143.6,345.8 139.8,344.4 135.7,343.5C106.3,337.2 70.5,345.3 48.5,320.3C56.8,336.7 74,349.6 90.6,355C116.1,363.6 142.8,354.1 166.8,348.2Z" style="fill:white;fill-opacity:0.25;fill-rule:nonzero;"/>
                            <path d="M117.6,335.9C98.5,320.5 95.6,297.4 87.1,277.2C81.8,264.6 73.2,253.3 64,242.3C74.1,262.5 69.7,288.5 82.8,307.5C86.9,313.5 92.6,319.2 97.9,323.9L97.7,324.2C92.9,322 88.6,318.6 84.2,315C61.3,295.9 26.8,293.5 13.1,262.4C16.8,285.2 34.9,305.4 54.5,318.2C73.1,330.4 97,329.1 117.6,335.9Z" style="fill:white;fill-opacity:0.25;fill-rule:nonzero;"/>
                        </g>
                        <g>
                            <path d="M383.7,55.1C391.5,65.4 402.1,71.7 411.3,80.3C406.4,70 405.4,58.3 399.2,48.4C388.5,31.4 370.7,24.8 354.2,18.4C366.2,29 374.3,42.7 383.7,55.1Z" style="fill:white;fill-opacity:0.25;fill-rule:nonzero;"/>
                            <path d="M419.2,89C421,95.1 423.7,100.9 425.2,107.3L424.8,107.6C422.1,100.4 417.4,93.5 411.3,87.8C399.8,76.9 382.5,70.4 376.8,54.5C377.1,76.6 395.9,93.4 413.1,106.3C420.8,112.1 427.4,119.9 431.4,128.1C430.7,122 430.4,116.9 431,111C432.8,91.7 433.9,70.1 420.7,55.4C414.4,48.4 407.3,42.9 398.9,40.8C415.1,52.1 414.2,72.2 419.2,89Z" style="fill:white;fill-opacity:0.25;fill-rule:nonzero;"/>
                            <path d="M436.4,135.8L438.1,158C437.9,158.2 437.9,158.8 437.3,158.6C436.6,156.1 436.3,153.5 435.9,150.9C432.9,133 417.1,120.5 403.8,107.8C400.6,104.8 398.3,101.3 396.8,97.5C397.9,106.4 400.4,115.6 404.4,123.7C414.7,144.5 434.5,161.3 438.1,185C439.8,162.3 453.7,145.5 453.7,121.4C453.7,101.9 446.1,85.9 434.7,71.4C434.4,71.2 434.1,70.9 433.7,71C446.2,90.1 434.7,114.2 436.4,135.8Z" style="fill:white;fill-opacity:0.25;fill-rule:nonzero;"/>
                            <path d="M440,197.9C437.8,206.3 437,215.3 433.6,223.1C433.3,223.3 433,222.9 432.8,222.7C441.3,198.9 428.9,177 416.8,158.2C413.6,153.3 412.1,147.5 410.6,141.7C409.3,152.5 411.6,164.9 413.6,176C416.2,190.3 421,203.7 424.9,217.5C427.5,226.1 426.8,235.8 425.5,244.9L426.7,243.9C435.7,227.3 453.5,214.3 458.9,196.1C463.2,181.6 466.2,164.8 463.2,149C461.8,142.9 460.7,136.6 458.1,131C463,156.9 445.9,175.6 440,197.9Z" style="fill:white;fill-opacity:0.25;fill-rule:nonzero;"/>
                            <path d="M418.9,264.1C415.9,268.9 412.9,273.9 408.6,277.7C409.3,274.8 411.7,272.2 413,269.3C417.5,259.6 419.5,248.5 418.4,237C417,223 411.2,210 413.5,195.3C401.5,221.1 405.4,253.5 398.5,281.4C397,287.6 393.2,293 390.9,298.8C402.7,289.8 418.1,281.9 431,271.7C443.5,261.9 454.3,250.3 460,235.3C464.1,224.5 465.1,211.6 464.1,199.4C462,227 432.8,241.6 418.9,264.1Z" style="fill:white;fill-opacity:0.25;fill-rule:nonzero;"/>
                            <path d="M378.1,315C373.7,318.6 369.4,322 364.6,324.2L364.4,323.9C369.7,319.1 375.4,313.4 379.5,307.5C392.6,288.5 388.2,262.4 398.3,242.3C389.1,253.3 380.5,264.6 375.2,277.2C366.7,297.4 363.8,320.5 344.7,335.9C365.3,329.1 389.2,330.4 407.7,318.3C427.2,305.5 445.3,285.3 449.1,262.5C435.5,293.5 401.1,295.9 378.1,315Z" style="fill:white;fill-opacity:0.25;fill-rule:nonzero;"/>
                            <path d="M326.8,343.6C322.7,344.5 318.9,345.8 314.5,345.2C318,343 322.6,342.7 326.7,341.2C349.5,332.6 353,308.2 365.5,291.5C349.6,302.1 336.4,316.6 321.5,330.2C311.1,339.7 298.2,343.7 284.8,346.5C288,347.7 292.2,347.4 295.7,348.3C319.8,354.3 346.4,363.7 372,355.2C388.5,349.7 405.7,336.8 414.1,320.5C392,345.4 356.1,337.4 326.8,343.6Z" style="fill:white;fill-opacity:0.25;fill-rule:nonzero;"/>
                        </g>
                    </g>
                    <path d="M231.2,2.2C140.2,2.2 66.2,76.2 66.2,167.2C66.2,258.2 140.2,332.2 231.2,332.2C322.2,332.2 396.2,258.2 396.2,167.2C396.2,76.2 322.2,2.2 231.2,2.2ZM231.2,198.7C213.8,198.7 199.7,184.6 199.7,167.2C199.7,149.8 213.8,135.7 231.2,135.7C248.6,135.7 262.7,149.8 262.7,167.2C262.7,184.6 248.6,198.7 231.2,198.7ZM254.9,140.7C249.1,135.5 241.6,132.2 233.3,131.7L233.3,104.7C249,105.2 263.3,111.5 274,121.6L254.9,140.7ZM229.2,131.7C220.9,132.2 213.4,135.5 207.6,140.7L188.5,121.6C199.2,111.5 213.5,105.2 229.2,104.7L229.2,131.7ZM204.8,143.6C199.6,149.4 196.3,156.9 195.8,165.2L168.8,165.2C169.3,149.5 175.6,135.2 185.7,124.5L204.8,143.6ZM195.8,169.2C196.3,177.5 199.6,185 204.8,190.8L185.7,209.9C175.6,199.2 169.3,184.9 168.8,169.2L195.8,169.2ZM207.6,193.7C213.4,198.9 220.9,202.2 229.2,202.7L229.2,229.7C213.5,229.2 199.2,222.9 188.5,212.8L207.6,193.7ZM233.2,202.6C241.5,202.1 249,198.8 254.8,193.6L273.9,212.7C263.2,222.8 248.9,229.1 233.2,229.6L233.2,202.6ZM257.7,190.8C262.9,185 266.2,177.5 266.7,169.2L293.7,169.2C293.2,184.9 286.9,199.2 276.8,209.9L257.7,190.8ZM266.7,165.2C266.2,156.9 262.9,149.4 257.7,143.6L276.8,124.5C286.9,135.2 293.2,149.5 293.7,165.2L266.7,165.2ZM276.8,118.8C265.3,108 250.1,101.2 233.2,100.7L233.2,70.7C258.3,71.2 281.1,81.4 298,97.6L276.8,118.8ZM229.2,100.7C212.4,101.2 197.1,108 185.6,118.8L164.4,97.6C181.3,81.4 204.1,71.2 229.2,70.7L229.2,100.7ZM182.8,121.6C172,133.1 165.2,148.3 164.7,165.2L134.7,165.2C135.2,140.1 145.4,117.3 161.6,100.4L182.8,121.6ZM164.8,169.2C165.3,186 172.1,201.3 182.9,212.8L161.6,234C145.4,217.1 135.2,194.3 134.7,169.2L164.8,169.2ZM185.7,215.6C197.2,226.4 212.4,233.2 229.3,233.7L229.3,263.7C204.2,263.2 181.4,253 164.5,236.8L185.7,215.6ZM233.2,233.6C250,233.1 265.3,226.3 276.8,215.5L298,236.7C281.1,252.9 258.3,263.1 233.2,263.6L233.2,233.6ZM279.6,212.7C290.4,201.2 297.2,186 297.7,169.1L327.7,169.1C327.2,194.2 317,217 300.8,233.9L279.6,212.7ZM297.7,165.2C297.2,148.4 290.4,133.1 279.6,121.6L300.8,100.4C317,117.3 327.2,140.1 327.7,165.2L297.7,165.2ZM300.8,94.8C283.2,77.9 259.4,67.3 233.2,66.8L233.2,40.2C266.7,40.7 297.1,54.3 319.5,76L300.8,94.8ZM229.2,66.7C203,67.2 179.2,77.8 161.6,94.7L142.9,76C165.3,54.3 195.7,40.7 229.2,40.2L229.2,66.7ZM158.8,97.6C141.9,115.2 131.3,139 130.8,165.2L104.3,165.2C104.8,131.7 118.4,101.3 140.1,78.9L158.8,97.6ZM130.8,169.2C131.3,195.4 141.9,219.2 158.8,236.8L140.1,255.5C118.4,233.1 104.8,202.7 104.3,169.2L130.8,169.2ZM161.6,239.6C179.2,256.5 203,267.1 229.2,267.6L229.2,294.1C195.7,293.6 165.3,280 142.9,258.3L161.6,239.6ZM233.2,267.7C259.4,267.2 283.2,256.6 300.8,239.7L319.5,258.4C297.1,280.1 266.7,293.7 233.2,294.2L233.2,267.7ZM303.7,236.8C320.6,219.2 331.2,195.4 331.7,169.2L358.2,169.2C357.7,202.7 344.1,233.1 322.4,255.5L303.7,236.8ZM331.7,165.2C331.2,139 320.6,115.2 303.7,97.6L322.4,78.9C344.1,101.3 357.7,131.7 358.2,165.2L331.7,165.2ZM322.4,73.2C299.2,50.7 267.9,36.7 233.2,36.2L233.2,6.2C276.1,6.7 315,24.1 343.6,52L322.4,73.2ZM229.2,36.2C194.6,36.7 163.2,50.7 140,73.2L118.9,52C147.5,24.1 186.4,6.7 229.3,6.2L229.3,36.2L229.2,36.2ZM137.2,76C114.7,99.2 100.7,130.5 100.2,165.2L70.2,165.2C70.7,122.3 88.1,83.4 116,54.8L137.2,76ZM100.3,169.2C100.8,203.8 114.8,235.2 137.3,258.4L116,279.5C88.1,251 70.8,212.1 70.3,169.2L100.3,169.2ZM140.1,261.2C163.3,283.7 194.6,297.7 229.3,298.2L229.3,328.2C186.4,327.7 147.5,310.3 118.9,282.4L140.1,261.2ZM233.2,298.2C267.8,297.7 299.2,283.7 322.4,261.2L343.6,282.4C315,310.3 276.1,327.7 233.2,328.2L233.2,298.2ZM325.2,258.3C347.7,235.1 361.7,203.8 362.2,169.1L392.2,169.1C391.7,212 374.3,250.9 346.4,279.5L325.2,258.3ZM362.2,165.2C361.7,130.6 347.7,99.2 325.2,76L346.4,54.8C374.3,83.4 391.7,122.3 392.2,165.2L362.2,165.2Z" style="fill:white;fill-opacity:0.25;fill-rule:nonzero;"/>
                    <g>
                        <path id="polygon59_9_" d="M240.7,129L239.7,129.1L239.7,130.3L240.7,130.2L240.7,129Z" style="fill:white;fill-opacity:0.25;fill-rule:nonzero;"/>
                        <rect id="rect61_9_" x="238.2" y="127.4" width="1.3" height="1" style="fill:white;fill-opacity:0.25;"/>
                        <path id="polygon63_9_" d="M235.8,127.1L237,127.3L237.1,126.3L235.9,126.1L235.8,127.1Z" style="fill:white;fill-opacity:0.25;fill-rule:nonzero;"/>
                        <path id="rect65_9_" d="M234.8,126.7L233.7,126.6L233.8,125.6L235,125.7L234.8,126.7Z" style="fill:white;fill-opacity:0.25;fill-rule:nonzero;"/>
                        <rect id="rect67_9_" x="225.2" y="125.4" width="1.3" height="1" style="fill:white;fill-opacity:0.25;"/>
                        <path id="polygon69_9_" d="M222.3,127.4L223.5,127.6L223.6,126.6L222.5,126.4L222.3,127.4Z" style="fill:white;fill-opacity:0.25;fill-rule:nonzero;"/>
                        <path id="rect71_9_" d="M222.5,129L221.1,128.6L221.4,127.6L222.7,128L222.5,129Z" style="fill:white;fill-opacity:0.25;fill-rule:nonzero;"/>
                        <path id="rect73_9_" d="M220.1,130.2L219.9,129.2L220.9,129L221.1,130L220.1,130.2Z" style="fill:white;fill-opacity:0.25;fill-rule:nonzero;"/>
                        <path id="polygon75_9_" d="M89.6,233.7L89.6,235.9L90.6,235.9L90.4,233.4L89.1,232.9L89.1,232L88.3,232L88.3,233.7L89.6,233.7Z" style="fill:white;fill-opacity:0.25;fill-rule:nonzero;"/>
                        <path id="polygon77_9_" d="M96.6,239.8L99.1,241L99.9,243.3L101.1,244.2L102.2,246.7L101.6,247.9L99.7,246.2L98.4,244.3L97.7,242.8L96.6,239.8Z" style="fill:white;fill-opacity:0.25;fill-rule:nonzero;"/>
                        <path id="polygon79_9_" d="M138.6,291.7L139.5,293.9L138.3,294.6L137.6,293.6L136,293.1L135.8,291.6L134.5,289.6L136.5,289.9L138.6,291.7Z" style="fill:white;fill-opacity:0.25;fill-rule:nonzero;"/>
                        <path id="path81_9_" d="M226.1,139.9L224.3,139.9L224,136.2L225,135.5L225,133.6L219.2,133.6L219,131.7L219.8,131.2L218.5,130.7L217.5,132L217.2,133.5L215.5,133.8L215.5,134.6L214.3,134.6L214.3,136.8L209.6,140.7L200.3,140.4C199.6,141.9 198,140.2 198,140.2C197.7,139.2 195.3,140.2 195.3,140.2C195.3,142.1 192.1,139.4 192.1,139.4L186.3,135.2C183,132.2 178,136 177.8,136.9C178,139.3 174,137.4 174,137.4C174,137.4 170.7,136.4 170.2,137.7C169.7,139 167.5,138.7 167.5,138.7L167.2,139.4L165.5,139.7L165.2,140.7L163.2,141L168.2,140.8C169.5,140.6 167.7,143.7 166.9,143.5L164.6,143.7L163.8,144.5L161.6,144.5L160.6,145.9L157.4,145.7C157.4,145.7 155.6,147.2 155.7,147.7C155.9,148.2 155.4,149.7 154.9,149.7C154.4,149.7 153.4,151.2 153.7,151.7C154,152.2 152.7,153.9 152.7,153.9L152.4,155.6L151.4,155.9L151.4,160.5L149.4,161.9L149.4,163.9L146.4,167.1L146.7,169.8L144.2,172.5L144.5,175.2L143,175.7L142.7,176.9L142,180.4L143.7,180.6C144.5,180.3 144.4,182.8 143.7,183.1C143,183.4 141.2,184.1 142.2,184.8C143.2,185.5 139.5,185.3 139.5,184.3C139.5,183.3 137.5,182.4 137,182.8C136.5,183.1 135.7,181.3 135.7,181.3C133.9,179.4 128.2,181.5 128.2,181.5L127.4,184.2C125.6,184.5 124.4,187.6 124.4,187.6C122.9,188.1 121.7,190 122.2,190.5C122.7,191 121.4,191.2 121.4,191.2L121.4,194.9L120.6,196.1L120.8,200.1C121.8,200.1 121.6,202 121.6,202C119.9,202.2 120.3,204.4 120.3,204.4L116.8,205.6L116.1,206.6L111.8,206.4L110.6,207.6L109.4,206.4L101.1,206.4L100.8,205.6L99.1,205.3L98.9,203.4L96.4,203.6L95.9,204.6L93.2,204.8C93.4,206.5 90.5,209 90.2,208.3C89.9,207.6 88,205.8 88.9,205.4C89.7,205.1 91.9,204.7 91.9,204.7L91.9,203.5L85.7,203.3L85,204.3L82.5,204.5L82.5,207.2L81.3,207.5C80.5,208 81.5,209.9 81.5,209.9C82.7,211.1 81.3,212.9 81.3,212.9C80.3,213.9 82.1,215.8 82.1,215.8C83.4,216.1 81.3,217.1 81.3,217.1C81.6,218.8 82.6,219.3 82.6,219.3C81.6,221 83.3,221.8 83.3,221.8L83.5,224.7L84.7,225.4L84.7,227.3L85.4,228.5L88.1,228.5L87.9,224.3C85.6,221.6 89.9,220.9 90.1,221.9C90.3,222.9 92.1,223.4 92.1,223.4C92.4,225.9 95.3,227.4 96.1,224.9C96.9,222.4 97.6,223.9 98.1,225.1C98.6,226.3 101.8,229.2 101.8,229.2L104.3,229.2L104.6,231.6C107.4,231.4 108.3,231.8 109.4,235.6C110.6,239.5 113.7,240.5 113.7,240.5L116,240.3C116,238.3 118.3,240.6 118.3,241.7C118.3,242.7 122.8,246.6 122.8,246.6L127.3,247.6L131.5,251L134.7,250.7L136,250.7C136.8,247.8 140.8,250.9 141.2,251.9C141.5,252.9 144.2,254.6 144.5,253.8C144.8,253 146.7,253.5 147,256C147.3,258.5 148.5,258 148.5,258L158,257.8L161.3,254.9L169.8,254.7C174.1,254.5 171.5,248.6 170.6,248.6C169.1,247.4 171.1,242.5 171.1,242.5L159,231.2C156.2,231.2 158.7,227.1 158.7,227.1C160.9,225.7 158.2,223.6 158.2,223.6C158.5,221.6 157,219.2 157,219.2C154,217.2 154.8,213.3 154.8,213.3L154.8,210.6C152.3,208.2 155.8,207.9 155.8,207.9C157,205.9 155,204.4 155,204.4L154.8,202.2L152.1,201.9L151.8,194L145.8,185.4C144.6,185.1 145.5,183 145.5,183C147,182.2 145.2,180.1 145.2,180.1L145,176.4L148.5,176.1L149.3,174.8L151,174.8L150.8,170.4C151.6,168.2 153.6,169.4 153.6,169.4L155.9,169.6L157.2,167.1L157.5,165.1L155.7,164.9C153.7,163.7 154.7,159.3 154.7,159.3C157.9,154.6 161.5,157.3 161.5,157.3L163.8,157.1C167.3,159.5 164.1,163.8 164.1,163.8C163.4,164.8 163.8,168 163.8,168L164.6,173.4L162.4,175.3C160.6,176.3 160.6,178.7 162.6,179.2C163.9,179.4 163.4,182.6 161.4,180.4C158.4,180.4 163.1,183.1 161.7,182.4C164.7,183.9 164,181.1 164,181.1L168,177.9C169.5,176.7 172.2,180.4 172.2,180.9C172.2,181.4 178.8,181.1 178.8,181.1C180.6,182.3 181.3,185.3 181.3,185.3C183.1,182.9 187,185.1 184.1,186.5C186.8,188.2 186.8,189.7 186.8,189.7C189,189 189,190.7 189,191.2C189,191.7 189.7,188.7 189.7,188.7C187.2,186.8 193,186.2 191.4,189.5L190.4,191L192.1,192.3L192.3,196.2C196,195.9 195,191.3 195,191.3L196.7,191C196.7,189.5 197.9,190.3 197.9,190.3C196.7,184.6 200.6,183.6 200.6,183.6C202.8,183.1 202.9,178.5 202.9,178.5C201.4,177.8 202.2,175.5 203.9,177.5C205.6,179.5 202.9,173.4 202.9,173.4L201.6,172.2L199.8,172L199.6,170.1L196.6,170.1L196.1,172.5L195,173L194.7,172.3L194.2,174.2L191.2,174.2L191,172.2L192.8,171.7L193.5,170.7L194,168L196.2,168L199,167.2C199.2,164.3 200.7,165 200.7,165L203.2,167L203.4,168L202.4,168.5L202.2,169.9L202.7,171.8L204,171.8C204.5,169.1 208,169.1 209,170.8L210,168.4C207.7,167.2 210,165.4 210.6,166.2C211.3,167 212.8,164 212.8,164C212.8,164 214,165.5 212.8,163.5C211.6,161.5 213.6,160.5 213.6,160.5C213.3,158.5 215.8,158.8 215.8,158.8L216,156.1L213.7,155.9C213.2,158.3 211.2,156.2 212.2,155.7C213.2,155.2 214.2,154.2 214.2,154.2L214.2,152.5L215.2,152.2L215.4,150.5L217.9,150.5L220.1,149.5L220.6,148.7L222.9,148.5L226.2,145.5L225.9,144.2C223.9,144.2 225.9,142.7 225.9,142.7L226.1,139.9Z" style="fill:white;fill-opacity:0.25;fill-rule:nonzero;"/>
                        <path id="path83_9_" d="M159.1,173.3L156.1,173L156.3,174.2L157.1,174.2C158.4,176.6 157.3,182.3 157.3,182.3C157.3,182.3 155.3,182.5 155,181.5C154.7,180.5 153.8,183.7 154.5,184.2C155.2,184.7 157.5,184.2 157.7,186.1C157.9,188 159.2,184.9 159.2,184.9L159.1,173.3Z" style="fill:white;fill-opacity:0.25;fill-rule:nonzero;"/>
                        <path id="polygon85_9_" d="M156.1,187L156.1,191L158.7,194.6L159.7,192.2L160.1,190.7L158.9,190.2L159.1,187.7L160.1,187.5L160.2,186.3L157.7,188L156.1,187Z" style="fill:white;fill-opacity:0.25;fill-rule:nonzero;"/>
                        <path id="polygon87_9_" d="M160.4,198.3L160.4,196.6L159.2,196.8L159.1,198.1L160.4,198.3Z" style="fill:white;fill-opacity:0.25;fill-rule:nonzero;"/>
                        <path id="polygon89_9_" d="M158.9,206.4L158.9,205.2L157.5,205.4L157.5,206.6L158.9,206.4Z" style="fill:white;fill-opacity:0.25;fill-rule:nonzero;"/>
                        <path id="path91_9_" d="M160.9,201.2C161.3,201.2 161.6,200.9 161.6,200.5C161.6,200.1 161.3,199.8 160.9,199.8C160.5,199.8 160.2,200.1 160.2,200.5C160.2,200.9 160.5,201.2 160.9,201.2Z" style="fill:white;fill-opacity:0.25;fill-rule:nonzero;"/>
                        <circle id="circle93_9_" cx="162" cy="204" r="0.7" style="fill:white;fill-opacity:0.25;"/>
                        <circle id="circle95_9_" cx="162.1" cy="184.7" r="0.7" style="fill:white;fill-opacity:0.25;"/>
                        <path id="polygon97_9_" d="M215.4,161.8L216.4,161.8L216.6,162.9L215.9,163.5L215.6,164.4L214.3,164.7L211.3,167.6L211.1,168.9L210.3,170.1L209.3,172.6L205.8,172.8L205.1,175.8L205.6,178.4L208.6,179.6L208.9,177.9L209.9,177.4L210.1,175.7L210.8,174.5L211.8,173.3L212.1,172L213.8,171L215.8,170.6L216.6,169.6L216.9,167.6L217.1,166.1L217.8,165L219.8,164.2L219.8,161L218.8,161L218.6,159.8L216.8,159.6L216.4,160.5L215.6,160.5L215.4,161.8Z" style="fill:white;fill-opacity:0.25;fill-rule:nonzero;"/>
                        <path id="path99_9_" d="M223.2,171.3L223.2,168.9L222.9,166.7L220.4,165.5L218.6,167.2L218.3,169.6L218.3,171.1L216.6,171.4L216.3,176L215,176.5L215.2,178.2L211.6,179.2L211.3,181.4L210,182.2L209.3,184.2L208.5,189.1C208.5,189.1 210,192 210.8,190.6C211.6,189.3 213,189.1 213,189.1L213.5,187.9L218,188.1C218.3,186.2 220.5,186.9 220.5,187.8C220.5,188.6 222.2,188 222.2,188L223.4,186.1L225.2,186.1L225.4,184.1L226.2,183.6L226.2,180.6C228.9,179.8 228.5,177.2 228.5,177.2L229.2,176.4L228.9,175.2C227.6,174.7 228.2,173.5 229.1,173.8C229.9,174.1 227.9,172.3 227.9,172.3C226.9,173.1 226.1,171.3 226.1,171.3L223.2,171.3Z" style="fill:white;fill-opacity:0.25;fill-rule:nonzero;"/>
                        <path id="path101_9_" d="M225.9,191.7C225.7,193.7 223.2,194.4 223.2,194.4L221.4,193.9L220.4,193.1L220.2,190.7L221.7,190.5L222,191.5L225.9,191.7Z" style="fill:white;fill-opacity:0.25;fill-rule:nonzero;"/>
                        <path id="path103_9_" d="M234.9,180.9C235.3,182.4 235.2,178.5 235.9,178.7C236.6,178.9 236.1,176.3 236.1,176.3L233.1,178.5C234.5,178.7 234.7,180.2 234.9,180.9Z" style="fill:white;fill-opacity:0.25;fill-rule:nonzero;"/>
                        <path id="path105_9_" d="M243.7,172.1C244.4,173.6 244.2,175.8 246.7,177.5C247.5,178.1 246.2,179.2 245.4,178.7C244.6,178.2 242.2,174.5 242.2,174.5L242.2,172.3C242.7,171 243.4,171.5 243.7,172.1Z" style="fill:white;fill-opacity:0.25;fill-rule:nonzero;"/>
                        <path id="polygon107_9_" d="M243.7,223.4L244.2,223.9L244.7,224.8L245.8,222.9L244.9,222.6L243.7,223.4Z" style="fill:white;fill-opacity:0.25;fill-rule:nonzero;"/>
                        <path id="line109_9_" d="M239.5,220.7L239.5,222.8" style="fill:none;fill-rule:nonzero;"/>
                        <path id="polygon111_9_" d="M263.6,218.3L264.9,217.4L264.4,216.6L263,217.4L263.6,218.3Z" style="fill:white;fill-opacity:0.25;fill-rule:nonzero;"/>
                        <path id="path113_9_" d="M311.7,253.5L313.2,254.2L313.4,257.1C315.4,259.1 321.9,257.4 321.9,256.9C321.9,256.4 321.6,250.7 321.6,250.7L320.8,249.9L320.6,245.7C321.3,243.5 317.4,240.3 317.1,241C316.8,241.7 314.6,241.2 314.6,241.8C314.6,242.5 313.3,245.8 313.9,247C314.6,248.2 313.4,248.2 313.2,249.4C313,250.4 311.3,252.4 311.7,253.5Z" style="fill:white;fill-opacity:0.25;fill-rule:nonzero;"/>
                        <path id="path115_9_" d="M308,246.7C307.7,248 306.5,248.7 305.8,248.2C305.1,247.7 306.6,249 307,249.7C307.3,250.4 308.3,250.4 308.7,249.7C309,249 308.9,247.5 309.2,246.8C309.5,246.2 308.2,246 308,246.7Z" style="fill:white;fill-opacity:0.25;fill-rule:nonzero;"/>
                        <rect id="rect117_9_" x="300.3" y="215.8" width="1.2" height="3.2" style="fill:white;fill-opacity:0.25;"/>
                        <path id="path119_9_" d="M317.5,183.3C316.8,182.3 320.8,180.6 321.5,182.6C322.2,184.6 321.5,184.3 320.8,184.1C320.2,183.9 318.5,184.6 317.5,183.3Z" style="fill:white;fill-opacity:0.25;fill-rule:nonzero;"/>
                        <path id="polygon123_9_" d="M321.1,160.7L320.9,161.7L322.7,162L322.9,161L321.1,160.7Z" style="fill:white;fill-opacity:0.25;fill-rule:nonzero;"/>
                        <path id="polygon125_9_" d="M316.4,163.6L316.5,163.9L317.5,163.5L317.1,162.7L316.9,162.1L316.4,162.4L315.2,163.1L314.1,162.4L313.6,163.3L314.9,164.1L315.2,164.3L315.4,164.1L316.4,163.6Z" style="fill:white;fill-opacity:0.25;fill-rule:nonzero;"/>
                        <path id="path127_9_" d="M322.7,122.5L320.2,122.5C320.2,122.5 321,122.8 318.7,120.6C316.4,118.4 314.9,121.1 314.9,121.1L312.2,121.4L312.2,124.1L310.9,124.6L311.1,126.3L312.9,126.1C312.9,126.1 312.9,128.1 313.4,127.3C313.9,126.5 318.1,127.5 317.7,129.5C317.6,130.3 321.9,132.5 321.4,135.2C323.6,135.5 323.1,137.7 323.1,137.7L325.9,138L326.7,136.3L327.5,136.5L327.5,135.5L325.7,135L325.4,129.6L324.2,128.8L324.5,127.4L323.2,126.9L323.9,124.7L322.7,122.5Z" style="fill:white;fill-opacity:0.25;fill-rule:nonzero;"/>
                        <path id="path129_9_" d="M330,139.7L328.7,139.5L325.7,140L324,143.2C324,143.2 324.8,143.7 325.5,144.9C326.2,146.1 326.5,153 324.5,154.2C322.5,155.4 324.7,154.7 324.7,154.7L324.4,158.4C324.9,160.1 325.7,159.2 326.2,158.4C326.7,157.6 327.2,157.4 327.9,156.5C328.6,155.7 329.6,154.1 329.7,153C329.9,151.8 330.7,150 330.2,149.5C329.7,149 330.7,146.6 330.7,146.6C330.7,146.6 331.4,145.2 330.7,143.9C330,142.5 330.9,141 331.4,140.4L330,139.7Z" style="fill:white;fill-opacity:0.25;fill-rule:nonzero;"/>
                        <path id="rect133_9_" d="M332,146.6L332.1,145.3L333.1,145.4L333,146.8L332,146.6Z" style="fill:white;fill-opacity:0.25;fill-rule:nonzero;"/>
                        <path id="rect135_9_" d="M331.9,151.3L331,150.8L331.5,149.8L332.4,150.3L331.9,151.3Z" style="fill:white;fill-opacity:0.25;fill-rule:nonzero;"/>
                        <path id="path137_9_" d="M330.5,137.9L329.8,136.4C329.8,136.4 329.8,135.1 330.1,134.4C330.4,133.7 329.4,133.1 328.9,132.9C328.4,132.7 328.6,131.4 328.4,130.7C328.2,130 327.1,129.5 327.1,129.5C327.1,129.5 326.8,127 326.8,126.5C326.8,126 325.3,125.3 325.8,124.8C326.3,124.3 326.6,123.6 327.1,123.3C327.6,123 326.6,120.6 327.4,121.1C328.2,121.6 328.2,122.5 328.6,123.1C328.9,123.8 328.4,126.1 329.3,126.6C330.1,127.1 329.1,128.8 330.5,128.8C331.8,128.8 331,132 331,132C331,132 330.7,134.4 331.5,134.5C332.3,134.7 331.8,138.7 331.8,138.7L330.5,137.9Z" style="fill:white;fill-opacity:0.25;fill-rule:nonzero;"/>
                        <path id="path139_9_" d="M319.7,110.6C320.2,111.3 321.2,111.8 321.2,112.5C321.2,113.2 320.9,113.7 321.9,113.8C322.9,114 323.6,113.6 323.9,114.5C324.2,115.3 324.2,116.7 324.1,117.4C323.9,118.1 324.3,119.1 325.1,119.1C325.9,119.1 326.1,119.3 326.1,119.8C326.1,120.3 327.1,117.9 327.1,117.9C326.3,117.2 325.6,115.7 325.6,115.7C325.6,115.7 324.8,113.3 324.8,113C324.8,112.7 323.6,112.3 323.1,112.2C322.6,112 321.8,110.5 321.8,110.5L319.7,110.6Z" style="fill:white;fill-opacity:0.25;fill-rule:nonzero;"/>
                        <path id="path141_9_" d="M321.3,109C320.8,108.3 320.3,107.8 319.6,107.5C318.9,107.2 318.4,106.8 317.8,106.8C317.1,106.8 316.5,106.1 316.8,105.3C317.1,104.5 316.3,104.1 316.3,103.4C316.3,102.7 316.8,102.7 317.6,103.2C318.4,103.7 318.3,103.9 318.9,104.7C319.6,105.5 319.9,106.4 320.6,106.2C321.3,106 321.8,107.7 322.4,107.2C323.1,106.7 322.9,108.4 322.9,108.4L321.3,109Z" style="fill:white;fill-opacity:0.25;fill-rule:nonzero;"/>
                        <path id="path143_9_" d="M301.9,128.1C302.8,129 296.9,128.8 296.9,128.1C296.9,127.4 297.4,125.1 298.9,125.6C300.4,126.1 300.6,122.6 300.6,122.6C300.6,122.6 299.3,122.8 300.4,122.1C301.6,121.4 300.4,120.4 299.9,119.9C299.4,119.4 298.9,118.5 298.9,118.5L301.2,118.5C302.2,117.8 302.5,114.6 302.5,114.6C304.5,115.3 305.5,113.9 305.5,113.9C305.5,113.9 305.8,114.9 306.5,115.8C307.2,116.6 304.8,117 305.7,117.5C306.5,118 306.9,119.5 306.5,120C306.2,120.5 304.3,120.2 304.3,119.5C304.3,118.8 303.6,120.3 304.3,121.2C305,122 303.5,123.2 303.1,123.2C302.8,123.2 300.6,123.5 302.4,124.6C304.2,125.6 306.2,125.1 306.2,125.1C306.2,125.1 307.7,124.9 308.2,125.8C308.7,126.6 308,126.8 307.2,126.8C306.4,126.8 302.4,126.5 302.4,126.5C302.4,126.5 301.4,127.6 301.9,128.1Z" style="fill:white;fill-opacity:0.25;fill-rule:nonzero;"/>
                        <path id="path145_9_" d="M291.2,129.6C292,129.4 294,129.3 294.4,129.8C294.7,130.3 293.2,131 293.2,131L291.2,131.3C290.6,130.5 290.4,129.8 291.2,129.6Z" style="fill:white;fill-opacity:0.25;fill-rule:nonzero;"/>
                        <path id="path147_9_" d="M312.7,115.5C314,114.8 316.9,114.8 316.7,113.8C316.5,112.8 318.4,112.5 318.4,112.5L318.9,114.5L320.4,115.5L320.6,117.4C320.6,117.4 321.1,117.1 319.3,117.6C317.5,118.1 318.6,118.9 318.6,118.9L314.6,119.1L314.1,117.4L312.7,115.5Z" style="fill:white;fill-opacity:0.25;fill-rule:nonzero;"/>
                        <path id="path149_9_" d="M306.2,106.3C307.2,106.3 305.9,110.2 308.5,109.8C311.2,109.5 308.7,111 310.7,111.1C312.7,111.3 312.2,109.6 312.9,108.4C313.6,107.2 313.2,106.5 312.1,106.2C310.9,105.9 310.9,105.9 310.6,104.5C310.3,103.2 308.9,102.8 308.9,102.8L308.4,100.8L306.2,102.1L304,105C304,107.4 305.2,106.3 306.2,106.3Z" style="fill:white;fill-opacity:0.25;fill-rule:nonzero;"/>
                        <path id="rect153_9_" d="M310.6,120.6L311.1,119.6L312,120L311.5,121.1L310.6,120.6Z" style="fill:white;fill-opacity:0.25;fill-rule:nonzero;"/>
                        <rect id="rect155_9_" x="308.9" y="119" width="1" height="1.2" style="fill:white;fill-opacity:0.25;"/>
                        <path id="rect157_9_" d="M309.7,96.5L309.9,98L308.9,98.1L308.7,96.6L309.7,96.5Z" style="fill:white;fill-opacity:0.25;fill-rule:nonzero;"/>
                        <rect id="rect159_9_" x="306.9" y="112.2" width="1" height="0.8" style="fill:white;fill-opacity:0.25;"/>
                        <path id="rect161_9_" d="M304.2,112.2L304.1,111.2L305.8,111.1L305.9,112.1L304.2,112.2Z" style="fill:white;fill-opacity:0.25;fill-rule:nonzero;"/>
                        <path id="rect163_9_" d="M290.5,128.5L289.6,128.1L290.1,126.9L291,127.3L290.5,128.5Z" style="fill:white;fill-opacity:0.25;fill-rule:nonzero;"/>
                        <path id="rect165_9_" d="M285.3,125.4L285.2,124.4L286.9,124.2L287,125.2L285.3,125.4Z" style="fill:white;fill-opacity:0.25;fill-rule:nonzero;"/>
                        <path id="polygon169_9_" d="M256.5,125.1L252.8,125.2L252.9,126.2L256.5,126.1L256.5,125.1Z" style="fill:white;fill-opacity:0.25;fill-rule:nonzero;"/>
                        <path id="rect171_9_" d="M250.4,126.5L250,125L251,124.8L251.3,126.3L250.4,126.5Z" style="fill:white;fill-opacity:0.25;fill-rule:nonzero;"/>
                        <path id="rect173_9_" d="M249.7,127.6L249.4,126.6L249.9,126.5L250.2,127.4L249.7,127.6Z" style="fill:white;fill-opacity:0.25;fill-rule:nonzero;"/>
                        <path id="path175_9_" d="M258,124.7L257.8,125.9L259.6,126.1C259.6,126.1 260.4,126.8 260.4,127.3C260.4,127.8 261.6,128.3 262.2,128.3C262.9,128.3 264.7,126.9 264.7,126.9C264.7,126.9 265.5,124.5 264.9,124.7C264.2,124.9 262.9,125.9 262.7,124.9C262.5,123.9 260.5,124.4 260.5,124.4L258,124.7Z" style="fill:white;fill-opacity:0.25;fill-rule:nonzero;"/>
                        <path id="path177_9_" d="M266.3,122.9C266.3,123.4 266,124.1 267,124.3C268,124.5 269.8,123.6 270,124.6C270.2,125.6 270.2,126.3 271.5,126.8C272.8,127.3 273.7,127.5 274.7,127.5C275.7,127.5 277.9,127.2 277.9,127.2C277.9,127.2 280.3,127.6 280.7,128C282.5,129.9 283.7,130.4 284.2,129.5C284.7,128.7 284,126.8 283.9,126.1C283.7,125.4 281.4,122.2 280.6,122.9C279.8,123.6 279.6,122.9 278.1,123.4C276.6,123.9 273.4,123.6 273.3,122.9C273.1,122.2 270.8,121.9 270.8,121.2C270.8,120.5 269.1,119.7 269.3,120.7C269.5,121.7 268.1,122.2 267.8,121.9C267.3,121.5 266.3,122.9 266.3,122.9Z" style="fill:white;fill-opacity:0.25;fill-rule:nonzero;"/>
                        <path id="path179_9_" d="M304.5,101.3L305.7,97.6C304,97.3 304.4,95.4 304.4,95.4C304.2,93.9 301.9,92.2 301.1,92.7C300.3,93.2 300.6,89.2 300.6,89.2C300.6,89.2 302.1,88.2 302.8,88.7C303.5,89.2 297.1,80.3 295.8,81.1C294.5,81.9 291.5,80.3 291.6,78.7C291.8,77.2 285.6,72.1 285.6,72.1C285.6,72.1 283.6,70.8 283.3,71.8C283,72.8 282.3,73.5 283.3,74C284.3,74.5 284.1,73.2 285.3,74.3C286.5,75.5 288.6,77 287.8,78C287,79 286,79.4 286,79.4L287.2,80.8L289,80.8L289.3,83.7C289.3,83.7 291.3,84.7 291.8,85.9C292.3,87.1 292.3,87.8 291.8,88.4C291.3,89.1 290.3,90.3 290.5,91.4C290.7,92.6 292,93.1 292,93.1L293.3,93.3L294.3,93.8L294.3,96C295.6,95.7 297.8,97.5 297.6,98.7C297.4,99.9 297.9,99.2 299.6,100.4C301.3,101.6 300.8,101.8 301.9,102.6C303,103.3 304,102.8 304.5,101.3Z" style="fill:white;fill-opacity:0.25;fill-rule:nonzero;"/>
                        <path id="path181_9_" d="M277.1,78.3C276.9,77.6 276.6,75.3 277.6,75.4C278.6,75.6 277.9,75.4 279.1,75.9C280.3,76.4 280.4,75.1 280.4,75.1L282.2,75.1L284.5,77L284.2,78.5L282.5,78.7C281.7,77.4 280,77.9 280.3,79C280.6,80.2 279.5,82.4 278.8,82.5C278.1,82.7 276,82.7 276.1,81.7C276.4,80.7 277.1,78.3 277.1,78.3Z" style="fill:white;fill-opacity:0.25;fill-rule:nonzero;"/>
                        <path id="path183_9_" d="M275.8,73.8L275.8,72.5C275.8,72.5 275.6,71.2 274.8,71.2C274,71.2 272.5,70.2 272.8,69.5C273.1,68.8 270,68.1 270,68.1C270,68.1 267.2,65.4 268.2,65.7C269.2,66 268.7,64.5 268.7,64.5C268.7,64.5 266.7,64.8 266.2,64.7C265.7,64.5 265.9,63 265.9,63C265.9,63 263.9,62.5 263.9,63C263.9,63.5 264.6,63.5 264.9,64.5C265.2,65.5 265.1,67.2 266.6,67.5C268.1,67.8 268.4,68.2 268.6,68.9C268.8,69.6 270.6,69.7 270.6,69.7L271.9,70.4L275.8,73.8Z" style="fill:white;fill-opacity:0.25;fill-rule:nonzero;"/>
                        <path id="polygon185_9_" d="M257.8,56.6L257.3,55.2L256,54.9L256,56.4L257.8,56.6Z" style="fill:white;fill-opacity:0.25;fill-rule:nonzero;"/>
                        <path id="path187_9_" d="M257.3,49.5C255.6,48.2 259.6,50.5 259.6,50.5C260.9,50.5 261.8,51.5 261.8,52C261.8,52.5 263.6,52.3 263.6,52.3L263.8,51.1L262.5,49.4L261.3,48.6C261.3,48.6 259.5,48.4 259.5,47.9C259.5,47.5 258,50 257.3,49.5Z" style="fill:white;fill-opacity:0.25;fill-rule:nonzero;"/>
                        <path id="path189_9_" d="M287.9,50.5C287.4,52 287.2,54 286.4,54C285.6,54 285.9,56.2 285.9,56.2C285.9,56.2 288.1,56.2 288.7,56.4C289.4,56.6 289.4,58.3 289.4,58.3C291.9,58.1 292.9,61.5 292.6,62.4C292.3,63.2 293.6,63.2 293.6,63.2C293.6,63.2 293.6,65.9 293.3,66.6C293,67.3 295.5,67.8 296.1,68.8C296.8,69.8 295.8,73.2 295.3,73.4C294.8,73.6 296.6,74.1 296.5,74.9C296.3,75.7 297,74.9 297.2,76.3C297.4,77.6 297.7,80.5 297.7,80.5L300,80.7C300.3,78.5 304.6,78.4 305.3,78.7C308.1,79.7 310.3,84.1 310.3,85.1C310.3,86.1 308.5,86.3 308.5,86.3L308.8,91.2C311.6,92 314,96.1 313.6,96.8C313.3,97.5 315.6,97.3 315.6,97.3C315.9,94.3 318.8,95.3 318.9,96.3C319.1,97.3 319.6,99.5 319.6,99.5L320.4,101L321.6,102.2L323.4,102L323.9,103L326.1,103.3C326.1,103.3 327.9,105.3 328.1,105.8C328.3,106.3 330.8,106.1 331.4,106.3C332.1,106.5 333.1,107 333.2,107.8C333.4,108.6 334.4,110 334.4,110C334.4,110 336.4,110.5 336.6,111.2C336.8,111.9 337.6,113.4 337.6,113.4L339.3,114.8L339.5,116.3L341.3,116.5L341.8,118.5L344.8,118.3L346.5,117.1C348.7,115.9 350.2,114.4 350.3,113.7C350.5,113 350.8,110.5 352.5,111C354.2,111.5 353,107.3 353,107.3C353,107.3 350.7,105.6 350.8,104.8C351,104 348.5,102.3 348.6,101.6C348.8,100.9 346.4,99.6 346.6,98.9C346.8,98.2 345.4,96.4 345.4,96.4L342.9,94L342.6,92.5L340.6,92.3L336.6,87.4L336.8,86L335.6,85.8L335.6,83.9L334.4,83.2L332.6,83L328.9,79L328.6,77.1L326.8,77.1L327.1,73.6C328.3,72.1 327.6,69.2 327.6,69.2C327.6,69.2 325.3,70.4 324.1,69.9C322.9,69.4 324.6,68.2 324.6,68.2L324.6,66.9L323.6,65.9C323.6,65.9 320.8,66.2 320.6,65.7C320.4,65.2 319.9,63 319.9,63L319.7,60.1L318.5,59.6L318.3,58.6L316.5,58.8L316.5,56.8L315.5,56.5L314.5,56L314.3,54L310.6,53.8L309.4,52.1L308.1,50.1L303.9,49.8L302.9,48.8L301.2,48.5L300,48L299.5,48.8L296.3,49L296.1,50C294.7,50.7 288.1,50 287.9,50.5Z" style="fill:white;fill-opacity:0.25;fill-rule:nonzero;"/>
                        <path id="path191_9_" d="M305.4,46.1C305.1,44.8 308.7,43.6 309.6,44.6C310.4,45.6 312.8,45.8 313.1,50.8C313.2,52.6 310.1,48.9 310.1,48.9L307.6,48.1C306.2,47.8 305.5,47 305.4,46.1Z" style="fill:white;fill-opacity:0.25;fill-rule:nonzero;"/>
                        <path id="rect193_9_" d="M256.6,48.2L255.7,47.8L256.4,46.2L257.3,46.7L256.6,48.2Z" style="fill:white;fill-opacity:0.25;fill-rule:nonzero;"/>
                        <path id="path195_9_" d="M248,31.6L245.8,29.4L245.8,27.5L245.1,26.8L244.4,24.4L242.2,23.7L240,24.5L237.7,26L235.2,26.3L233.9,27.8L239.2,28.3L240.2,30L244,30.3L246.5,32.8C248.8,33.8 249.3,32.8 248,31.6Z" style="fill:white;fill-opacity:0.25;fill-rule:nonzero;"/>
                        <path id="path197_9_" d="M247.7,23.3C247.3,21.8 245.2,25.2 247.4,25.8C249.6,26.5 251.7,25.8 251.7,25.8L252.2,24.8L260.5,25C261.2,24.3 261.5,23.3 261.5,23.3C261.5,23.3 263.5,22.6 264.3,23C265.1,23.3 264.5,20.6 263.6,21C262.8,21.3 261.1,21.2 261.1,21.2L258.1,21.2C257.9,20 255.3,20.5 255.1,21.2C255,21.8 254,22 254,22L250.2,22.3C249.8,23.3 247.9,24 247.7,23.3Z" style="fill:white;fill-opacity:0.25;fill-rule:nonzero;"/>
                        <path id="path199_9_" d="M231.2,51.8C233.8,52.6 234.7,52 234.9,51.3C235.1,50.6 235.2,50.5 236.2,50.3C237.2,50.1 236,48.1 235,48.3C234,48.5 233,48 232.8,47.1C232.6,46.3 231,44.1 230.8,45.8C230.6,47.5 229.6,47.5 229.8,48.7C230.1,49.8 230.6,51.6 231.2,51.8Z" style="fill:white;fill-opacity:0.25;fill-rule:nonzero;"/>
                        <path id="path201_9_" d="M212.1,53.7C212,53.1 215.4,53 215.9,53.5C216.4,54 216.1,54.9 217.6,54.9C219.1,54.9 218.4,55.9 218.3,56.4C218.1,56.9 216.5,56.7 216.3,56.2C216.1,55.7 213.6,55.5 213.6,55.5C213.6,55.5 212.3,54.5 212.1,53.7Z" style="fill:white;fill-opacity:0.25;fill-rule:nonzero;"/>
                        <path id="polygon205_9_" d="M265.8,18.5L267.3,20L267.6,19.7L269.3,18.3L268.6,17.5L267.3,18.6L266.5,17.7L265.8,18.5Z" style="fill:white;fill-opacity:0.25;fill-rule:nonzero;"/>
                        <path id="polygon207_9_" d="M259.5,15.7L259.7,15.5L261.6,14.3L261,13.5L259.5,14.5L258.4,13.8L257.9,14.7L259.2,15.5L259.5,15.7Z" style="fill:white;fill-opacity:0.25;fill-rule:nonzero;"/>
                        <path id="polygon209_9_" d="M253.5,50.1L254.6,51.8L255.4,51.2L254.3,49.4L254.1,49.2L253.9,49.2L252.2,49L252.1,50L253.5,50.1Z" style="fill:white;fill-opacity:0.25;fill-rule:nonzero;"/>
                        <path id="path211_9_" d="M199.1,96.2L199.3,98.1L201.8,98.1C202.8,98.1 201,96.9 201,96.9C201,96.9 199,97.1 199.1,96.2Z" style="fill:white;fill-opacity:0.25;fill-rule:nonzero;"/>
                        <path id="rect213_9_" d="M202.3,96.3L202.9,95.5L203.9,96.3L203.3,97.1L202.3,96.3Z" style="fill:white;fill-opacity:0.25;fill-rule:nonzero;"/>
                        <path id="rect215_9_" d="M172,64.7L172.7,64L173.7,65L173,65.7L172,64.7Z" style="fill:white;fill-opacity:0.25;fill-rule:nonzero;"/>
                        <path id="polygon219_9_" d="M218.9,282.8L219.6,283.5L220.9,282.2L220.3,281.8L218.6,281L218.2,281.9L219.2,282.4L218.9,282.8Z" style="fill:white;fill-opacity:0.25;fill-rule:nonzero;"/>
                        <path id="polygon221_9_" d="M205.8,270.6L207,271.4L207.6,270.6L206.9,270.1L207.4,269.7L206.8,268.9L205.8,269.8L205.3,270.2L205.8,270.6Z" style="fill:white;fill-opacity:0.25;fill-rule:nonzero;"/>
                        <path id="path223_9_" d="M331.1,237.7C330.9,236.8 329.9,236.5 329.8,236.5L329.5,237.5C329.6,237.5 329.7,237.6 329.8,237.7L330,238.6C329.9,238.7 329.8,238.8 329.8,238.9L330.5,239.6C331,238.8 331.2,238.3 331.1,237.7Z" style="fill:white;fill-opacity:0.25;fill-rule:nonzero;"/>
                        <path id="polygon225_9_" d="M332.6,234.5L331,234.4L331.1,232.9L332.7,233.1L332.6,234.5Z" style="fill:white;fill-opacity:0.25;fill-rule:nonzero;"/>
                        <path id="path227_9_" d="M371.1,221.4C371.8,221 372.7,220.1 372.6,222C372.5,223.9 371.7,223.3 371.1,223.9C370.5,224.5 370.1,222 371.1,221.4Z" style="fill:white;fill-opacity:0.25;fill-rule:nonzero;"/>
                        <path id="path231_9_" d="M379.6,214.2L379.6,214C379.6,213.7 379.5,213.3 379.3,212.9L378.4,213.4C378.5,213.6 378.5,213.9 378.6,214.1C378.6,214.4 378.7,214.7 378.9,214.9C379.1,215 379.3,215.1 379.6,215L379.4,214C379.4,214.1 379.5,214.1 379.6,214.2Z" style="fill:white;fill-opacity:0.25;fill-rule:nonzero;"/>
                        <path id="path233_9_" d="M377.4,215C377.7,216 378,217 378,217.1L378.9,216.7C378.9,216.7 378.5,215.7 378.3,214.7L377.4,215Z" style="fill:white;fill-opacity:0.25;fill-rule:nonzero;"/>
                        <path id="path235_9_" d="M373.7,219L372.7,218.9C372.6,219.7 372.8,220.7 373.6,220.8L373.8,219.8C373.8,219.8 373.7,219.4 373.7,219Z" style="fill:white;fill-opacity:0.25;fill-rule:nonzero;"/>
                        <path id="path237_9_" d="M369.4,198.9C369.3,198.6 369.2,198.3 368.9,198.2C368.2,197.9 366.9,198.4 366.3,198.8L366.9,199.6C367.5,199.2 368.4,199 368.5,199.1L368.5,199L369.4,198.9Z" style="fill:white;fill-opacity:0.25;fill-rule:nonzero;"/>
                        <path id="path241_9_" d="M323.3,145C322.6,145.7 321.1,146 321.1,146L320.6,147.9L319.8,148.6C319.8,148.6 320,149.1 319.8,150.3C319.6,151.5 318.1,152.2 318.1,152.2L317.4,153C317.4,153 313.4,153.2 312.9,153C311.4,152.3 312.4,150.3 313.4,150.5C314.4,150.7 313.2,147.6 313.2,147.6L314.5,147.4C314.5,147.4 314.7,144.4 315.2,144.4C315.7,144.4 315,143.4 314.4,142.9C313.7,142.4 312.9,140.7 312.2,140.9C311.5,141.1 308.9,140.9 308.9,140.9L308.4,141.9L306.6,142.2C306.6,142.2 306.8,143.5 306.4,143.9C305.4,145.1 301.6,147.6 303.2,143.4L303.7,142.4L303.7,140.9L300.7,140.7C300.7,140.7 299.2,140.2 299.2,139.5C299.2,138.8 299,138 299,138L295.5,134.1L291.3,133.6L291,132.8L288.5,132.5C285.5,131 282.8,132.3 283.3,134.9C283.8,137.4 284.6,138.4 283,138.4C281.3,138.4 281,137.1 281,137.1C281,137.1 279.7,136.6 279.7,137.3C279.7,138 279.2,139.3 279.7,140C280.2,140.7 279,141.7 278.5,141.2C278,140.7 276.7,139.2 277,138.7C277.3,138.2 274.7,135 277.3,134.5C280,134 277.1,132.5 278.1,132.1L279.4,131.4L280.7,131.4L281.5,130.7L279.3,130.4L278,130.2L275.5,130C273,131.7 272.5,133.7 272.5,133.7C271.2,136.2 268,132.7 269.2,131.3C270.4,129.9 265.5,131.1 264.7,131.8C263.9,132.5 261.4,132.1 261.4,132.1C260.9,133.6 258.6,131.9 259.2,130.9C259.9,129.9 259.9,129.2 259.9,129.2L259.1,129L258.1,130.9C255.8,130.9 255.1,132.2 255.6,133.1C256.1,133.9 254.9,132.9 254.6,134.1C254.3,135.3 254.8,135.3 255.8,135.8C256.8,136.3 255.3,136.3 256,137.1C256.7,137.9 258.7,137.1 257.5,138.3C256.3,139.5 254,139 254,139C253.8,140.5 250.7,140.2 250.3,139.7C250,139.2 247.5,136.2 247.5,136.2L244.3,136C244,133.6 245.8,134.8 246.5,133C247.2,131.1 247.5,128.1 247.5,128.1C247.5,128.1 244.8,127.9 244.7,128.8C244.5,129.6 242.9,130.2 242.9,130.2C242.9,130.2 241.6,130.7 242.1,131.4C242.6,132.1 241.1,132.4 241.1,132.4C241.1,132.4 241.4,133.5 240.9,133.9C239.6,135.3 236.2,134.1 235.7,133.6L233.7,132.8L231.7,131.5L229.4,132.5L228.7,133.2L226.2,133.2L226,135.2L230.5,135.7L230.8,139.9L229,139.3L227.8,139.3L227.3,138.3L226.3,138.1L226.3,141.8L227.3,142.6L228.1,143.4L229.8,143.6L230.1,145.6L234.3,145.8L234.8,146.6L237.3,146.8L242.1,151.7L241.8,153.2L241,153.7C241.3,154.9 238.8,154.2 238.8,154.2L238.8,155.2L240,155.4L241.2,156.1L242.9,153.2C244.7,152 245.6,153.7 245.7,154.7C245.9,155.7 244.9,155.5 244.9,155.5L244.9,157.9L245.9,158.2C247.6,160.2 245.2,161.4 245.2,161.4L244.7,163.1C244.2,164.6 242.4,164.3 242.4,164.3L241.7,165.3L239.7,165.8L243.6,166.3C244,164.9 245,164.6 245.5,165.3C246,166 246,167.2 246,167.2L247,167.4L246.8,169.3L247.8,169.6L247.8,175L249,176.3C251,175.5 251,176.8 250,177.5C249,178.2 249.7,181.2 249.7,181.2L248.9,182L248.9,183.4L247.9,184.1L247.9,186C246.2,185.2 244.2,185.5 243.7,186C242.2,185 239,185.3 239,186.2C240,187.5 237.8,187.9 237.8,187.9L236.6,189.2C237.4,190.9 235.8,191.1 235.8,191.1L235.8,194.3L233.8,196.2L234,200.6C234,201.8 236.5,201.9 237,201.3C237.5,200.6 239.5,202.7 239.5,202.7L241,202.7L241.3,199.7L240.3,199.2L240.3,194.3L242,192.4C244,191.7 243.3,196.8 243.3,197.3C243.5,199.2 244.3,199 245.1,198.6C246.8,197.9 245.4,200.5 244.1,200.3C242.8,200.1 243.6,202 243.6,202L244.4,202.3L242.9,203.5L241.6,205L239.9,204.5L237.9,204.3L237.2,203.1L236,202.9L235.8,205.3L235,206.3L233,208.3C235.7,208.3 232.7,210.2 232,210.2C233.5,210.7 231.8,212.2 228,211L228,212.2L226.7,212.4L227.9,213.7L229.2,213.9L228.7,216.8C228.7,219 223.2,217.5 222.7,217L222.5,220L221.5,220.2L221.7,222.2L221.5,225.1L223.3,224.8L223.3,226L227.8,226.2L234.3,219.3L238.1,218.5C238.4,216.8 240.1,218.8 240.1,218.8C241.8,218.6 242.1,219.8 242.1,219.8L244.3,220.1C246.1,220.6 245,220.8 245.1,221.5C245.3,222.5 246.1,222.2 246.1,222.2L246.4,220L247.4,220.2L246.4,219L244.6,218.2L242.6,217.4C241.3,215.5 242.9,215.9 244.3,216.1L246.5,216.1C246.5,216.1 249,219.5 249,220.3C249,221.1 250.2,221.3 250.2,221.3L251.7,221.1L252.2,222.3L253.7,222.3L254.2,223.3L257.2,223.3L257.4,221.8L254.6,221.3L254.4,219.6L252.4,219.1C251.7,216.2 252.9,215.4 253.7,216.7L254.7,216.9L254.4,214.4L255.6,214.1L255.3,210.6L254.3,210.3L254.3,209.1L258.5,209.3C258.2,207.1 258.7,206.1 258.7,206.1L259.9,206.1L260.1,206.9L265.2,207.4L268.8,203.3C268.6,203 269.2,202.8 268.8,202.4C268.3,201.9 267.6,202.4 266.8,201.9C266,201.4 266.8,198.5 266.6,197.9C266.4,197.2 269.4,196.2 268.9,197.7C268.4,199.2 268.9,199.9 268.9,199.9C271.1,197.9 272.9,200.1 272.7,200.6C272.5,201.1 273.9,201.6 274.7,201.1C275.5,200.6 276.5,202.6 276.2,203.6C275.9,204.6 272.9,204.4 272.7,203.4C272.5,202.4 272,202.7 271.7,203.2C271.4,203.7 269.9,204 269,203.5C268.8,203.4 268.8,203.3 268.7,203.2L265.1,207.3L265.3,207.3C267.3,208.5 266.3,210 265.6,210.3C264.9,210.6 263.8,210.6 263.8,210.6L263.5,211.3L259.2,211.6L258.9,213.3C256.7,213 255.9,215.3 256.4,216.5C256.9,217.7 256.4,218.7 256.4,218.7L258.2,219.5L260.5,218.8C260.8,217.1 262.3,216.8 263.7,215.8C265,214.8 267.2,217.7 266.5,219C265.8,220.3 265.8,220.9 265.8,220.9L266,222.4L264.3,223.1L263,223.8L262.8,224.6L258.3,224.6L257.5,225.4L255.3,225.6L254.6,226.6L253.1,226.8C253.1,226.8 250.6,228 251.6,229.3C252.6,230.7 247.4,230.5 246.3,228.6C246,230.3 244.1,228.8 244.1,228.8L242.3,228.3L242.1,225.8C241.8,224.1 238.6,224.1 238.8,225.3C239,226.5 232.8,225.8 232.8,225.8L230.8,226.8L229,227.9L228.8,228.7L225.8,229L224.5,229.7L224,228.7L222.7,228.7L221.4,230.6C217.9,230.8 214.6,232.8 214.9,233.6C215.2,234.4 213.6,235.3 213.6,235.3L212.1,235.8L211.1,237.3L209.1,238L208.8,241.5L207.8,242.2L207.8,243.7L206.6,244L206.6,244.8L204.9,245L205.9,247.5L207.2,248.2C209.5,248.5 208.5,251.4 208.5,251.4L209.8,251.6L210.5,253.5L211.8,256.2C212.3,258.2 213.8,257.7 214.5,257.6C215.2,257.4 215.8,259.6 215.8,259.6L222.4,259.8C222.4,259.8 222.1,260.5 223.2,260.8C224.4,261.1 232,261.5 232.3,261C232,259.5 236.5,259.1 238.3,260.5C240.1,261.8 242.6,261 242.6,261L245.1,264L246.8,267.7L249.6,268.5L251.6,269L252.3,271.9L253.8,272.1L254.3,274C256.1,275.3 253.8,278.2 253.8,278.2L253.8,281.9L255.1,282.6L254.9,284L257.1,286.2L259.6,286.4L265.9,293.1L270.9,294.6L271.7,297.3L273,297.1L274,296.3L278,296.1L280,294.2L282.2,293.9L300.7,278.2L299,277.2L299,273.5C302,271.3 302.2,267.4 299.3,267.1C297.2,266.8 298.1,264.6 300.1,264.2L301.3,263.7L301.3,262.2L305.1,258.7L305.1,256L296.8,249.1C293.1,247.8 296.8,239.7 299.3,239.8C301.8,240 299.1,227.3 299.1,227.3L297.8,226.6L298.1,222.5L296.3,222.5L293.3,226.4L292.5,229.1C292.2,232.6 281.9,232 281.4,231.5C280.9,231 277.4,229.5 277.4,229.5C277.4,229.5 274.7,227.3 274.2,228C273.7,228.7 271.4,227.2 271.4,227.7C271.4,228.2 269.2,226.5 269.2,226.5L265.9,225.3L268.4,224.8L267.9,222.8L272.2,225C272.7,225.7 274.9,225.5 274.9,225.5L275.6,226.3C275.6,226.3 276.9,226.1 277.8,227.1C278.6,228.1 283,227.3 283,227.3L284.2,228.3L286,229L291.2,229.2L291.4,226L292.4,225L292.2,223L293.4,222L293.4,220.3L294.4,220L294.6,216.3L295.4,216.1L295.4,208L292.9,205.6C292.7,206.4 290.1,206.4 290.1,206.4C290.1,206.4 289.4,207.6 288.9,207.6C288.4,207.6 289.6,209.1 289.2,210.1C288.9,211.1 287.5,211.1 287.5,211.1L285,211.8L284.3,212.6L281.6,212.6L281.3,210.4L284.3,209.6L286,208.8L286.8,207.1C287,205.4 289,205.6 289,205.6C289,205.6 292.8,202.4 293,200.9C293.2,199.4 294.5,195.2 296.8,195.2L301.1,195.2C302.8,194.5 302.3,192.3 302.3,192.3L304.5,192L304.8,193.2C304.8,193.2 307.8,193.5 308.1,193C308.4,192.5 309.1,191.3 309.9,191.8C310.7,192.3 313.4,190.6 313.4,190.6C313.6,189.4 317.7,189.9 317.7,189.9L318.2,188.4C318.2,188.4 315.4,184.5 314.9,184.5C314.4,184.5 311.7,182.1 311.4,183C308.7,182.3 308.9,178.6 308.9,178.6L307.9,176.2C307.9,174.8 305.4,172 304.9,172.3C302.4,170.4 304.2,168.3 304.9,168.1C305.6,167.9 307.2,165.6 307.2,165.6L308,163.2L310.8,162.4L311.1,160.2L309.6,160C309.6,160 311.3,157 312.1,157C312.9,157 318.4,157 318.9,156.7C319.4,156.4 320.4,153.7 320.4,153.2C320.4,152.7 321.7,152.5 322.2,152.4C322.7,152.2 323.9,150.9 324.2,150.2C325.1,148.5 324,144.3 323.3,145Z" style="fill:white;fill-opacity:0.25;fill-rule:nonzero;"/>
                        <path id="path245_9_" d="M231.2,205.8C231.4,205.6 231.7,206.6 232.2,206.4C232.7,206.3 232.9,207.3 232.4,207.3C231.9,207.3 231.9,207.9 231.9,208.2C231.9,208.5 231.9,209.1 231.5,209.5C231.1,209.9 230.8,209.6 230.3,209.4C229.8,209.1 229.6,209.1 228.9,209.1C228.3,209.1 228.8,210.1 228.8,210.1C228.8,210.1 226.2,210 226.7,209.6C227.2,209.2 227.7,209.1 227.3,208.8C226.9,208.5 227.3,208.3 227.3,207.8C227.3,207.3 228.5,207.5 228.2,207.2C227.8,206.8 228.2,205.4 228.8,206.2L229.2,205.3C228.8,204.9 229.1,204.8 228.3,204.5C227.6,204.2 228.2,202.7 228.2,202.7L228.3,201.7C228.5,200.4 231,200.3 231.2,201.4C231.3,202.5 231.2,203.3 231.2,203.3L231.9,203.6C231.9,203.6 231.8,204.4 231.2,204.4C230.6,204.4 231.2,204.8 230.8,205.2L231.2,205.8Z" style="fill:white;fill-opacity:0.25;fill-rule:nonzero;"/>
                        <path id="path247_9_" d="M223,207.1C223.4,206.3 224.2,203.1 225.2,204.1C226.2,205.1 226.8,204.1 226.8,204.1C226.8,204.1 227.3,204.6 227,205.6C226.8,206.6 226.5,207.6 225.9,207.8C225.3,207.9 224.8,208.3 224,208.4C223.4,208.5 223,207.1 223,207.1Z" style="fill:white;fill-opacity:0.25;fill-rule:nonzero;"/>
                    </g>
                </g>
                <g id="Owl" transform="matrix(3.23421,0,0,3.23421,-267.155,-578.482)">
                    <g transform="matrix(0.309194,0,0,0.309194,-173.71,178.863)">
                        <path d="M1229.6,800C1289,800 1325.58,767.526 1341.38,730.525C1537.26,644.231 1563.5,506.058 1570.2,372.821C1525.06,465.436 1463.31,532.001 1380.62,565.772C1379.84,593.244 1377.39,614.715 1371.46,623.69L1367.56,623.703C1370.19,591.617 1365.87,564.984 1354.42,543.934C1322.8,513.729 1285.78,501.246 1229.6,501.246C1173.42,501.246 1136.4,513.729 1104.77,543.934C1093.33,564.984 1089,591.617 1091.64,623.703L1087.73,623.69C1081.81,614.715 1079.36,593.244 1078.57,565.772C995.888,532.001 934.13,465.436 888.991,372.821C895.695,506.058 921.935,644.231 1117.82,730.525C1133.62,767.526 1170.19,800 1229.6,800ZM1229.6,725.4C1155.96,725.4 1104.58,687.256 1104.58,616.828C1104.58,558.198 1132.48,524.622 1176.73,525.092C1198.78,524.369 1215.82,533.035 1229.6,545.916C1243.37,533.035 1260.42,524.369 1282.47,525.092C1326.71,524.622 1354.61,558.198 1354.61,616.828C1354.61,687.256 1303.24,725.4 1229.6,725.4Z" style="fill:white;fill-opacity:0.25;"/>
                    </g>
                    <g transform="matrix(0.388554,0,0,0.388554,51.5427,146.044)">
                        <path d="M448.099,551.137C455.803,550.673 464.754,555.679 466.474,560.621C468.677,566.949 452.713,581.374 441.766,581.97C434.447,582.369 421.692,577.355 422.845,571.454C423.851,566.305 435.568,550.993 448.099,551.137Z" style="fill:white;fill-opacity:0.25;"/>
                    </g>
                    <g transform="matrix(-0.388554,0,0,0.388554,361.407,146.044)">
                        <path d="M448.099,551.137C455.803,550.673 464.754,555.679 466.474,560.621C468.677,566.949 452.713,581.374 441.766,581.97C434.447,582.369 421.692,577.355 422.845,571.454C423.851,566.305 435.568,550.993 448.099,551.137Z" style="fill:white;fill-opacity:0.25;"/>
                    </g>
                    <g transform="matrix(0.388554,0,0,0.388554,51.8399,146.445)">
                        <path d="M397.975,639.99C392.681,639.99 379.876,598.575 397.975,598.575C416.073,598.575 403.269,639.99 397.975,639.99Z" style="fill:white;fill-opacity:0.25;"/>
                    </g>
                    <g transform="matrix(0.388554,0,0,0.388554,51.8399,146.436)">
                        <path d="M679.434,349.465C692.699,472.1 647.368,558.363 579.934,622.521C690.145,538.44 749.69,375.675 680.611,239.492C689.154,272.776 688.442,309.554 679.434,349.465Z" style="fill:white;fill-opacity:0.25;"/>
                    </g>
                    <g transform="matrix(-0.388554,0,0,0.388554,360.721,146.436)">
                        <path d="M679.434,349.465C692.699,472.1 647.368,558.363 579.934,622.521C690.145,538.44 749.69,375.675 680.611,239.492C689.154,272.776 688.442,309.554 679.434,349.465Z" style="fill:white;fill-opacity:0.25;"/>
                    </g>
                </g>
                <g transform="matrix(1,0,0,1,-828.968,-1.42109e-14)">
                    <path d="M1260.39,527.762C1242.15,513.529 1223.34,503.454 1205.02,503.454C1183.85,503.454 1168.58,519.587 1150.86,530.967C1126.08,546.813 1092.23,555.6 1063.28,544.076C1047.58,538.17 1032.45,529.383 1021.21,515.266C1044.12,531.111 1078.26,533.128 1104.04,522.468C1132.42,510.656 1161.52,494.955 1193.93,494.955C1224.26,494.955 1253.55,507.855 1279.11,525.06C1271.7,524.779 1265.74,525.961 1260.39,527.762L1260.39,527.762Z" style="fill:rgb(249,129,240);fill-rule:nonzero;"/>
                </g>
                <g transform="matrix(1,0,0,1,-828.968,-1.42109e-14)">
                    <path d="M1183.32,522.002C1188.67,522.115 1194.03,523.937 1199.36,525.865L1197.85,527.482C1215.98,513.409 1234.68,503.454 1252.85,503.454C1274.02,503.454 1289.29,519.587 1307.01,530.967C1331.64,546.669 1365.49,555.6 1394.59,544.076C1410.15,538.17 1425.27,529.383 1436.65,515.266C1413.61,530.967 1379.32,533.128 1353.54,522.468C1325.02,510.656 1296.06,494.955 1263.65,494.955C1235.27,494.955 1207.7,506.367 1183.32,522.002Z" style="fill:rgb(249,129,240);fill-rule:nonzero;"/>
                </g>
            </g>
            <g transform="matrix(0.52266,0,0,0.52266,82.7488,116.199)">
                <path d="M96,224C131.3,224 160,195.3 160,160C160,124.7 131.3,96 96,96C60.7,96 32,124.7 32,160C32,195.3 60.7,224 96,224ZM544,224C579.3,224 608,195.3 608,160C608,124.7 579.3,96 544,96C508.7,96 480,124.7 480,160C480,195.3 508.7,224 544,224ZM576,256L512,256C494.4,256 478.5,263.1 466.9,274.6C507.2,296.7 535.8,336.6 542,384L608,384C625.7,384 640,369.7 640,352L640,320C640,284.7 611.3,256 576,256ZM320,256C381.9,256 432,205.9 432,144C432,82.1 381.9,32 320,32C258.1,32 208,82.1 208,144C208,205.9 258.1,256 320,256ZM396.8,288L388.5,288C367.7,298 344.6,304 320,304C295.4,304 272.4,298 251.5,288L243.2,288C179.6,288 128,339.6 128,403.2L128,432C128,458.5 149.5,480 176,480L464,480C490.5,480 512,458.5 512,432L512,403.2C512,339.6 460.4,288 396.8,288ZM173.1,274.6C161.5,263.1 145.6,256 128,256L64,256C28.7,256 0,284.7 0,320L0,352C0,369.7 14.3,384 32,384L97.9,384C104.2,336.6 132.8,296.7 173.1,274.6Z" style="fill:white;fill-rule:nonzero;"/>
            </g>
        </g>
    </g>
</svg>
